<?xml version="1.0" encoding="UTF-8" standalone="no"?>
<!-- Created with Inkscape (http://www.inkscape.org/) -->

<svg
   xmlns:dc="http://purl.org/dc/elements/1.1/"
   xmlns:cc="http://creativecommons.org/ns#"
   xmlns:rdf="http://www.w3.org/1999/02/22-rdf-syntax-ns#"
   xmlns:svg="http://www.w3.org/2000/svg"
   xmlns="http://www.w3.org/2000/svg"
   xmlns:sodipodi="http://sodipodi.sourceforge.net/DTD/sodipodi-0.dtd"
   xmlns:inkscape="http://www.inkscape.org/namespaces/inkscape"
   width="744.09448819"
   height="1052.3622047"
   id="svg3033"
   version="1.1"
   inkscape:version="0.48.3.1 r9886"
   sodipodi:docname="New document 4">
  <defs
     id="defs3035">
    <linearGradient
       id="linearGradient3816">
      <stop
         id="stop3818"
         offset="0"
         style="stop-color:#fff12f;stop-opacity:1;" />
      <stop
         style="stop-color:#ffffff;stop-opacity:1;"
         offset="0.5"
         id="stop3824" />
      <stop
         id="stop3820"
         offset="1"
         style="stop-color:#e69a00;stop-opacity:1;" />
    </linearGradient>
  </defs>
  <sodipodi:namedview
     id="base"
     pagecolor="#ffffff"
     bordercolor="#666666"
     borderopacity="1.0"
     inkscape:pageopacity="0.0"
     inkscape:pageshadow="2"
     inkscape:zoom="1.4142136"
     inkscape:cx="281.20785"
     inkscape:cy="904.03806"
     inkscape:document-units="px"
     inkscape:current-layer="layer1"
     showgrid="false"
     inkscape:object-nodes="false"
     inkscape:object-paths="false"
     inkscape:window-width="1278"
     inkscape:window-height="709"
     inkscape:window-x="0"
     inkscape:window-y="25"
     inkscape:window-maximized="1" />
  <metadata
     id="metadata3038">
    <rdf:RDF>
      <cc:Work
         rdf:about="">
        <dc:format>image/svg+xml</dc:format>
        <dc:type
           rdf:resource="http://purl.org/dc/dcmitype/StillImage" />
        <dc:title></dc:title>
      </cc:Work>
    </rdf:RDF>
  </metadata>
  <g
     inkscape:label="Layer 1"
     inkscape:groupmode="layer"
     id="layer1">
    <rect
       style="fill:#000000;fill-opacity:1;stroke:none;stroke-width:16;stroke-linecap:round;stroke-miterlimit:4;stroke-opacity:1;stroke-dasharray:none"
       id="rect3982"
       width="188.79752"
       height="260.92239"
       x="399.51532"
       y="-9.0050964" />
    <rect
       style="fill:#000000;fill-opacity:1;stroke:#000000;stroke-width:0.46799999;stroke-linecap:round;stroke-miterlimit:4;stroke-opacity:1;stroke-dasharray:none"
       id="rect3183"
       width="243.24474"
       height="243.24474"
       x="74.183762"
       y="13.622321" />
    <g
       id="g4045"
       transform="translate(-4.545882,9.416151e-7)">
      <path
         id="path4599"
         d="m 118.46923,52.726931 0,9.24242 0,100.078049 -21.296457,0 0,18.47193 21.296457,0 0,28.01344 0,9.22952 9.24235,0 48.85445,0 c 0,0 11.09188,0.12283 22.45506,-5.55871 11.36321,-5.68155 23.4184,-18.91597 23.4184,-40.31496 0,-20.23579 -8.81395,-33.48126 -18.73212,-40.47127 7.02071,-6.82418 12.62696,-17.70116 12.62696,-32.803839 0,-20.88618 -9.7845,-34.01189 -19.74753,-39.98977 -9.96285,-5.97757 -20.02077,-5.89681 -20.02077,-5.89681 l -48.85445,0 -9.24235,0 z m 18.48471,18.47194 39.61209,0 c 0,0 5.21414,0.0829 10.51801,3.2673 5.30403,3.18255 10.77842,8.39273 10.77842,24.14734 0,14.846569 -5.20969,19.266949 -10.45292,22.129529 -4.84737,2.6467 -9.59322,2.80116 -10.30984,2.8119 -0.19838,0 -0.31553,0.0307 -0.53367,0.0307 0,0 -0.0123,0 -0.0123,0 l -39.59907,0 0,-52.369279 z m 40.52334,70.814799 c 1.45889,0 7.43483,0.16889 13.25174,3.09811 6.6883,3.36679 13.23875,8.87054 13.23875,26.77684 0,15.24147 -6.25557,20.31716 -13.21271,23.79604 -6.95712,3.47857 -14.18903,3.60539 -14.18903,3.60539 l -39.61209,0 0,-18.77072 33.50693,0 0,-18.47193 -33.50693,0 0,-20.00793 39.35169,0 c 0,0 0.17442,0 0.2604,0 0.18087,0 0.36827,-0.0307 0.54684,-0.0307 0.0123,0 0.0276,0 0.0387,0 0.0123,0 0.11638,-0.0307 0.3255,-0.0307 z"
         style="font-size:medium;font-style:normal;font-variant:normal;font-weight:normal;font-stretch:normal;text-indent:0;text-align:start;text-decoration:none;line-height:normal;letter-spacing:normal;word-spacing:normal;text-transform:none;direction:ltr;block-progression:tb;writing-mode:lr-tb;text-anchor:start;baseline-shift:baseline;color:#000000;fill:#ffffff;fill-opacity:1;stroke:none;stroke-width:60.5;marker:none;visibility:visible;display:inline;overflow:visible;enable-background:accumulate;font-family:Sans;-inkscape-font-specification:Sans"
         inkscape:connector-curvature="0" />
      <path
         inkscape:connector-curvature="0"
         id="path3187-3"
         d="m 268.625,61.229063 -34.90625,34.90625 11.3125,11.312497 15.59375,-15.593747 0,86.781247 -15.59375,-15.59375 -11.3125,11.3125 34.90625,34.90625 34.90625,-34.90625 -11.3125,-11.3125 -15.59375,15.59375 0,-86.781247 15.59375,15.593747 11.3125,-11.312497 -34.90625,-34.90625 z"
         style="font-size:medium;font-style:normal;font-variant:normal;font-weight:normal;font-stretch:normal;text-indent:0;text-align:start;text-decoration:none;line-height:normal;letter-spacing:normal;word-spacing:normal;text-transform:none;direction:ltr;block-progression:tb;writing-mode:lr-tb;text-anchor:start;baseline-shift:baseline;color:#000000;fill:#ffffff;fill-opacity:1;stroke:none;stroke-width:16;marker:none;visibility:visible;display:inline;overflow:visible;enable-background:accumulate;font-family:Sans;-inkscape-font-specification:Sans" />
    </g>
    <path
       sodipodi:nodetypes="ccccccccc"
       inkscape:connector-curvature="0"
       id="path4040"
       d="M 500.53125,59.03125 489.21875,70.34375 473.625,54.75 l 0,106.53125 -16,0 0,-106.53125 -15.59375,15.59375 -11.3125,-11.3125 C 442.35417,47.395833 453.98958,35.760417 465.625,24.125"
       style="font-size:medium;font-style:normal;font-variant:normal;font-weight:normal;font-stretch:normal;text-indent:0;text-align:start;text-decoration:none;line-height:normal;letter-spacing:normal;word-spacing:normal;text-transform:none;direction:ltr;block-progression:tb;writing-mode:lr-tb;text-anchor:start;baseline-shift:baseline;color:#000000;fill:#ffffff;fill-opacity:1;stroke:none;stroke-width:16;marker:none;visibility:visible;display:inline;overflow:visible;enable-background:accumulate;font-family:Sans;-inkscape-font-specification:Sans" />
  </g>
</svg>
