<?xml version="1.0" encoding="UTF-8" standalone="no"?>
<!-- Created with Inkscape (http://www.inkscape.org/) -->

<svg
   xmlns:dc="http://purl.org/dc/elements/1.1/"
   xmlns:cc="http://creativecommons.org/ns#"
   xmlns:rdf="http://www.w3.org/1999/02/22-rdf-syntax-ns#"
   xmlns:svg="http://www.w3.org/2000/svg"
   xmlns="http://www.w3.org/2000/svg"
   xmlns:sodipodi="http://sodipodi.sourceforge.net/DTD/sodipodi-0.dtd"
   xmlns:inkscape="http://www.inkscape.org/namespaces/inkscape"
   width="27"
   height="27"
   id="svg7058"
   version="1.1"
   inkscape:version="0.48.3.1 r9886"
   sodipodi:docname="New document 15">
  <defs
     id="defs7060" />
  <sodipodi:namedview
     id="base"
     pagecolor="#ffffff"
     bordercolor="#666666"
     borderopacity="1.0"
     inkscape:pageopacity="0.0"
     inkscape:pageshadow="2"
     inkscape:zoom="11.2"
     inkscape:cx="4.36276"
     inkscape:cy="16.218305"
     inkscape:document-units="px"
     inkscape:current-layer="layer1"
     showgrid="false"
     units="in"
     inkscape:window-width="1278"
     inkscape:window-height="709"
     inkscape:window-x="0"
     inkscape:window-y="25"
     inkscape:window-maximized="1" />
  <metadata
     id="metadata7063">
    <rdf:RDF>
      <cc:Work
         rdf:about="">
        <dc:format>image/svg+xml</dc:format>
        <dc:type
           rdf:resource="http://purl.org/dc/dcmitype/StillImage" />
        <dc:title></dc:title>
      </cc:Work>
    </rdf:RDF>
  </metadata>
  <g
     inkscape:label="Layer 1"
     inkscape:groupmode="layer"
     id="layer1"
     transform="translate(0,-1025.3597)">
    <g
       id="g7120"
       transform="matrix(1.3446556,0,0,1.3446556,-1.7809271,-349.88447)">
      <g
         style="fill:#50c878;fill-opacity:1;stroke:none"
         transform="matrix(0.55758811,0,0,0.40741462,-159.33273,938.84014)"
         id="g4045-7-7">
        <path
           sodipodi:nodetypes="ccccc"
           inkscape:connector-curvature="0"
           style="fill:#50c878;fill-opacity:1;stroke:none"
           d="m 289.40869,228.42033 3.53554,0 0,8.74874 -3.53554,0 z"
           id="path4047-5-3" />
        <path
           sodipodi:nodetypes="cc"
           style="fill:#50c878;fill-opacity:1;stroke:none"
           d="m 291.17646,226.5989 0,1.82143"
           id="path4049-3-4"
           inkscape:connector-curvature="0" />
        <path
           sodipodi:nodetypes="cc"
           style="fill:#50c878;fill-opacity:1;stroke:none"
           d="m 291.17646,240.59764 0,-3.42857"
           id="path4051-8-0"
           inkscape:connector-curvature="0" />
      </g>
      <path
         id="path6686-6"
         d="m 4.8976723,1030.1607 1.9713756,0 0,1.8232 -1.9713756,0 z"
         style="fill:#50c878;fill-opacity:1;stroke:none"
         inkscape:connector-curvature="0"
         sodipodi:nodetypes="ccccc" />
      <path
         sodipodi:nodetypes="ccccc"
         inkscape:connector-curvature="0"
         style="fill:#50c878;fill-opacity:1;stroke:none"
         d="m 7.7572369,1024.9372 1.9713747,0 0,5.3056 -1.9713747,0 z"
         id="path6694-9" />
      <path
         inkscape:connector-curvature="0"
         id="path6706-3"
         d="m 11.602487,1040.5196 0,0"
         style="fill:none;stroke:#000000;stroke-width:0.23831154;stroke-linecap:butt;stroke-linejoin:miter;stroke-miterlimit:4;stroke-opacity:1;stroke-dasharray:none"
         sodipodi:nodetypes="cc" />
      <path
         sodipodi:nodetypes="ccccc"
         inkscape:connector-curvature="0"
         style="fill:#e34234;fill-opacity:1;stroke:none"
         d="m 10.616801,1024.9372 1.971376,0 0,15.5785 -1.971376,0 z"
         id="path6708-6" />
      <path
         id="path6722-1"
         d="m 13.476365,1035.7325 1.971374,0 0,4.7832 -1.971374,0 z"
         style="fill:#50c878;fill-opacity:1;stroke:none"
         inkscape:connector-curvature="0"
         sodipodi:nodetypes="ccccc" />
      <path
         inkscape:connector-curvature="0"
         id="path6724-9"
         d="m 14.462052,1034.4681 0,1.2644"
         style="fill:none;stroke:#000000;stroke-width:0.23831154;stroke-linecap:butt;stroke-linejoin:miter;stroke-miterlimit:4;stroke-opacity:1;stroke-dasharray:none"
         sodipodi:nodetypes="cc" />
      <path
         id="path6752-1"
         d="m 16.097631,1032.4243 1.971376,0 0,3.3902 -1.971376,0 z"
         style="fill:#50c878;fill-opacity:1;stroke:none"
         inkscape:connector-curvature="0"
         sodipodi:nodetypes="ccccc" />
      <path
         sodipodi:nodetypes="ccccc"
         inkscape:connector-curvature="0"
         style="fill:#50c878;fill-opacity:1;stroke:none"
         d="m 18.718899,1030.8572 1.971374,0 0,1.6491 -1.971374,0 z"
         id="path6770-4" />
      <path
         inkscape:connector-curvature="0"
         id="path6796-5"
         d="m 15.71671,1031.5708 c 0.182072,-1.2171 -0.744596,-1.8713 -2.011669,-2.3078 l 0.411018,-1.6487 -1.003549,-0.2501 -0.400167,1.6052 c -0.263809,-0.066 -0.534785,-0.1277 -0.804028,-0.1892 l 0.403017,-1.6158 -1.00298,-0.2501 -0.411311,1.6481 c -0.218372,-0.05 -0.432748,-0.099 -0.640828,-0.1506 l 7.83e-4,-0.01 -1.3839936,-0.3456 -0.2669617,1.0719 c 0,0 0.7445872,0.1706 0.728861,0.1812 0.4064544,0.1015 0.4799081,0.3704 0.4676181,0.5837 l -0.4681858,1.8781 c 0.027971,0.01 0.064289,0.017 0.1043281,0.034 -0.033477,-0.01 -0.069173,-0.017 -0.1060422,-0.026 l -0.6562692,2.6311 c -0.049727,0.1235 -0.1757751,0.3087 -0.4599012,0.2384 0.00994,0.015 -0.729439,-0.1821 -0.729439,-0.1821 l -0.4982,1.1488 1.3059584,0.3255 c 0.2429598,0.061 0.4810529,0.1247 0.7154348,0.1847 l -0.415316,1.6675 1.0024025,0.2501 0.4113208,-1.6498 c 0.273826,0.074 0.539642,0.1429 0.799749,0.2075 l -0.409873,1.6421 1.00354,0.2501 0.415316,-1.6644 c 1.711267,0.3239 2.998072,0.1932 3.539721,-1.3545 0.436459,-1.2463 -0.02176,-1.9651 -0.922085,-2.4339 0.655691,-0.1512 1.149612,-0.5825 1.281379,-1.4734 z m -2.292936,3.2153 c -0.310118,1.2462 -2.408402,0.5725 -3.088673,0.4036 l 0.551079,-2.2092 c 0.680271,0.1698 2.861733,0.5059 2.537594,1.8056 z m 0.310419,-3.2333 c -0.282972,1.1336 -2.029395,0.5576 -2.595907,0.4164 l 0.49963,-2.0036 c 0.566513,0.1412 2.390962,0.4047 2.096277,1.5872 z"
         style="fill:#f7931a;fill-opacity:1;stroke:#000000;stroke-width:0.34823328;stroke-miterlimit:4;stroke-dasharray:none" />
    </g>
  </g>
</svg>
