<?xml version="1.0" encoding="UTF-8" standalone="no"?>
<!-- Created with Inkscape (http://www.inkscape.org/) -->

<svg
   xmlns:dc="http://purl.org/dc/elements/1.1/"
   xmlns:cc="http://creativecommons.org/ns#"
   xmlns:rdf="http://www.w3.org/1999/02/22-rdf-syntax-ns#"
   xmlns:svg="http://www.w3.org/2000/svg"
   xmlns="http://www.w3.org/2000/svg"
   xmlns:sodipodi="http://sodipodi.sourceforge.net/DTD/sodipodi-0.dtd"
   xmlns:inkscape="http://www.inkscape.org/namespaces/inkscape"
   width="27"
   height="27"
   id="svg7058"
   version="1.1"
   inkscape:version="0.48.3.1 r9886"
   sodipodi:docname="launcher_icon.svg">
  <defs
     id="defs7060" />
  <sodipodi:namedview
     id="base"
     pagecolor="#ffffff"
     bordercolor="#666666"
     borderopacity="1.0"
     inkscape:pageopacity="0.0"
     inkscape:pageshadow="2"
     inkscape:zoom="11.2"
     inkscape:cx="3.6931171"
     inkscape:cy="16.218305"
     inkscape:document-units="px"
     inkscape:current-layer="layer1"
     showgrid="false"
     units="in"
     inkscape:window-width="1278"
     inkscape:window-height="709"
     inkscape:window-x="0"
     inkscape:window-y="25"
     inkscape:window-maximized="1" />
  <metadata
     id="metadata7063">
    <rdf:RDF>
      <cc:Work
         rdf:about="">
        <dc:format>image/svg+xml</dc:format>
        <dc:type
           rdf:resource="http://purl.org/dc/dcmitype/StillImage" />
        <dc:title />
      </cc:Work>
    </rdf:RDF>
  </metadata>
  <g
     inkscape:label="Layer 1"
     inkscape:groupmode="layer"
     id="layer1"
     transform="translate(0,-1025.3597)">
    <path
       sodipodi:nodetypes="ccccc"
       inkscape:connector-curvature="0"
       style="fill:#50c878;fill-opacity:1;stroke:#000000;stroke-width:0.468;stroke-miterlimit:4;stroke-dasharray:none"
       d="m 0.95963837,1037.6682 2.65082053,0 0,4.7929 -2.65082053,0 z"
       id="path4047-5-3" />
    <path
       sodipodi:nodetypes="ccccc"
       inkscape:connector-curvature="0"
       style="fill:#50c878;fill-opacity:1;stroke:#000000;stroke-width:0.468;stroke-miterlimit:4;stroke-dasharray:none"
       d="m 4.8047554,1035.3269 2.6508212,0 0,2.4516 -2.6508212,0 z"
       id="path6686-6" />
    <path
       id="path6694-9"
       d="m 8.6498849,1028.3031 2.6508201,0 0,7.1342 -2.6508201,0 z"
       style="fill:#50c878;fill-opacity:1;stroke:#000000;stroke-width:0.468;stroke-miterlimit:4;stroke-dasharray:none"
       inkscape:connector-curvature="0"
       sodipodi:nodetypes="ccccc" />
    <path
       id="path6708-6"
       d="m 12.495014,1028.3031 2.650822,0 0,20.9477 -2.650822,0 z"
       style="fill:#e34234;fill-opacity:1;stroke:#000000;stroke-width:0.468;stroke-miterlimit:4;stroke-dasharray:none"
       inkscape:connector-curvature="0"
       sodipodi:nodetypes="ccccc" />
    <path
       sodipodi:nodetypes="ccccc"
       inkscape:connector-curvature="0"
       style="fill:#50c878;fill-opacity:1;stroke:#000000;stroke-width:0.468;stroke-miterlimit:4;stroke-dasharray:none"
       d="m 16.340143,1042.819 2.650819,0 0,6.4318 -2.650819,0 z"
       id="path6722-1" />
    <path
       sodipodi:nodetypes="ccccc"
       inkscape:connector-curvature="0"
       style="fill:#50c878;fill-opacity:1;stroke:#000000;stroke-width:0.468;stroke-miterlimit:4;stroke-dasharray:none"
       d="m 19.864843,1038.3706 2.650821,0 0,4.5587 -2.650821,0 z"
       id="path6752-1" />
    <path
       id="path6770-4"
       d="m 23.389545,1036.2634 2.650819,0 0,2.2175 -2.650819,0 z"
       style="fill:#50c878;fill-opacity:1;stroke:#000000;stroke-width:0.468;stroke-miterlimit:4;stroke-dasharray:none"
       inkscape:connector-curvature="0"
       sodipodi:nodetypes="ccccc" />
    <path
       style="fill:#f7931a;fill-opacity:1;stroke:#000000;stroke-width:0.468;stroke-miterlimit:4;stroke-dasharray:none"
       d="m 19.352635,1037.223 c 0.244824,-1.6366 -1.001225,-2.5163 -2.705002,-3.1032 l 0.552678,-2.2169 -1.349428,-0.3363 -0.538087,2.1584 c -0.354732,-0.089 -0.719102,-0.1717 -1.081141,-0.2544 l 0.541919,-2.1727 -1.348662,-0.3363 -0.553072,2.2161 c -0.293635,-0.067 -0.581897,-0.1331 -0.861693,-0.2025 l 0.0011,-0.013 -1.860995,-0.4647 -0.3589713,1.4413 c 0,0 1.0012133,0.2294 0.9800673,0.2436 0.546541,0.1365 0.645311,0.4981 0.628785,0.7849 l -0.629549,2.5254 c 0.03761,0.014 0.08645,0.023 0.140286,0.046 -0.04502,-0.013 -0.09301,-0.023 -0.14259,-0.035 l -0.8824565,3.5379 c -0.066866,0.1661 -0.236357,0.4151 -0.6184088,0.3206 0.013366,0.02 -0.9808442,-0.2449 -0.9808442,-0.2449 l -0.6699074,1.5447 1.7560643,0.4377 c 0.3266972,0.082 0.6468506,0.1677 0.9620136,0.2484 l -0.5584572,2.2422 1.3478862,0.3363 0.553085,-2.2184 c 0.368201,0.1 0.725632,0.1921 1.075387,0.279 l -0.551138,2.2081 1.349415,0.3363 0.558457,-2.2381 c 2.301065,0.4355 4.031375,0.2598 4.759706,-1.8213 0.586887,-1.6759 -0.02926,-2.6424 -1.239887,-3.2728 0.881679,-0.2033 1.545832,-0.7832 1.723014,-1.9812 z m -3.083209,4.3235 c -0.417002,1.6757 -3.238471,0.7698 -4.153202,0.5427 l 0.741012,-2.9707 c 0.91473,0.2284 3.848045,0.6803 3.41219,2.428 z m 0.417406,-4.3477 c -0.380499,1.5243 -2.728837,0.7498 -3.4906,0.5599 l 0.67183,-2.6942 c 0.761765,0.1899 3.21502,0.5442 2.81877,2.1343 z"
       id="path6796-5"
       inkscape:connector-curvature="0" />
  </g>
</svg>
